<svg width="44" height="44" viewBox="0 0 44 44" fill="none" xmlns="http://www.w3.org/2000/svg">
<circle cx="22" cy="22" r="22" fill="#5F0B3F"/>
<path d="M22.4972 18.9985C20.5692 18.9985 18.9958 20.5719 18.9958 22.5C18.9958 24.4281 20.5692 26.0015 22.4972 26.0015C24.4252 26.0015 25.9986 24.4281 25.9986 22.5C25.9986 20.5719 24.4252 18.9985 22.4972 18.9985ZM32.9988 22.5C32.9988 21.05 33.012 19.6132 32.9305 18.1658C32.8491 16.4847 32.4656 14.9927 31.2363 13.7633C30.0044 12.5314 28.515 12.1505 26.8339 12.0691C25.3839 11.9876 23.9471 12.0008 22.4998 12.0008C21.0499 12.0008 19.613 11.9876 18.1657 12.0691C16.4846 12.1505 14.9926 12.534 13.7633 13.7633C12.5314 14.9953 12.1505 16.4847 12.0691 18.1658C11.9876 19.6158 12.0008 21.0526 12.0008 22.5C12.0008 23.9474 11.9876 25.3868 12.0691 26.8342C12.1505 28.5153 12.534 30.0073 13.7633 31.2367C14.9952 32.4686 16.4846 32.8495 18.1657 32.9309C19.6157 33.0124 21.0525 32.9992 22.4998 32.9992C23.9498 32.9992 25.3866 33.0124 26.8339 32.9309C28.515 32.8495 30.007 32.466 31.2363 31.2367C32.4682 30.0047 32.8491 28.5153 32.9305 26.8342C33.0146 25.3868 32.9988 23.95 32.9988 22.5V22.5ZM22.4972 27.8875C19.5158 27.8875 17.1098 25.4814 17.1098 22.5C17.1098 19.5186 19.5158 17.1125 22.4972 17.1125C25.4785 17.1125 27.8846 19.5186 27.8846 22.5C27.8846 25.4814 25.4785 27.8875 22.4972 27.8875ZM28.1052 18.1501C27.4092 18.1501 26.847 17.5879 26.847 16.8918C26.847 16.1957 27.4092 15.6336 28.1052 15.6336C28.8013 15.6336 29.3634 16.1957 29.3634 16.8918C29.3636 17.0571 29.3312 17.2208 29.2681 17.3736C29.2049 17.5263 29.1123 17.6651 28.9954 17.782C28.8785 17.8989 28.7397 17.9915 28.587 18.0547C28.4342 18.1179 28.2705 18.1503 28.1052 18.1501V18.1501Z" fill="white"/>
</svg>
