<svg width="44" height="44" viewBox="0 0 44 44" fill="none" xmlns="http://www.w3.org/2000/svg">
<circle cx="22" cy="22" r="22" fill="#5F0B3F"/>
<path fill-rule="evenodd" clip-rule="evenodd" d="M33.4495 15.948C33.6155 15.402 33.4495 15 32.6545 15H30.0296C29.3616 15 29.0536 15.347 28.8866 15.73C28.8866 15.73 27.5516 18.926 25.6607 21.002C25.0487 21.604 24.7707 21.795 24.4367 21.795C24.2697 21.795 24.0187 21.604 24.0187 21.057V15.948C24.0187 15.292 23.8347 15 23.2787 15H19.1508C18.7338 15 18.4828 15.304 18.4828 15.593C18.4828 16.214 19.4288 16.358 19.5258 18.106V21.904C19.5258 22.737 19.3728 22.888 19.0388 22.888C18.1488 22.888 15.9839 19.677 14.6989 16.003C14.4499 15.288 14.1979 15 13.5269 15H10.9C10.15 15 10 15.347 10 15.73C10 16.412 10.89 19.8 14.1449 24.281C16.3149 27.341 19.3698 29 22.1527 29C23.8217 29 24.0277 28.632 24.0277 27.997V25.684C24.0277 24.947 24.1857 24.8 24.7147 24.8C25.1047 24.8 25.7717 24.992 27.3296 26.467C29.1096 28.216 29.4026 29 30.4046 29H33.0295C33.7795 29 34.1555 28.632 33.9395 27.904C33.7015 27.18 32.8515 26.129 31.7245 24.882C31.1126 24.172 30.1946 23.407 29.9156 23.024C29.5266 22.533 29.6376 22.314 29.9156 21.877C29.9156 21.877 33.1155 17.451 33.4485 15.948H33.4495Z" fill="white"/>
</svg>
