<svg width="44" height="44" viewBox="0 0 44 44" fill="none" xmlns="http://www.w3.org/2000/svg">
<circle cx="22" cy="22" r="22" fill="#5F0B3F"/>
<path d="M33.486 15.8242C33.3502 15.2792 33.0857 14.7857 32.7205 14.3963C32.345 13.995 31.8848 13.7079 31.3833 13.5621C29.5065 13.0056 21.9872 13.0056 21.9872 13.0056C18.8525 12.9655 15.7185 13.1419 12.603 13.534C12.1015 13.6905 11.6422 13.984 11.2658 14.3885C10.8961 14.7887 10.6282 15.2823 10.4883 15.8231C10.1522 17.86 9.98892 19.9283 10.0006 22C9.98862 24.0698 10.1515 26.1374 10.4883 28.1769C10.6252 28.7155 10.8921 29.2068 11.2628 29.6037C11.6336 30.0005 12.0953 30.2872 12.603 30.439C14.5048 30.9944 21.9872 30.9944 21.9872 30.9944C25.1259 31.0346 28.2638 30.8581 31.3833 30.466C31.8848 30.3202 32.345 30.0331 32.7205 29.6318C33.0903 29.2349 33.3531 28.7413 33.485 28.2039C33.8299 26.1677 33.9976 24.0986 33.9857 22.0259C34.0117 19.9443 33.8442 17.8654 33.486 15.8231V15.8242ZM19.5967 25.8496V18.1515L25.8528 22.0011L19.5967 25.8496Z" fill="white"/>
</svg>
