<?xml version="1.0" encoding="utf-8"?>
<!-- Generator: Adobe Illustrator 16.0.0, SVG Export Plug-In . SVG Version: 6.00 Build 0)  -->
<!DOCTYPE svg PUBLIC "-//W3C//DTD SVG 1.1//EN" "http://www.w3.org/Graphics/SVG/1.1/DTD/svg11.dtd">
<svg version="1.1" id="Слой_1" xmlns="http://www.w3.org/2000/svg" xmlns:xlink="http://www.w3.org/1999/xlink" x="0px" y="0px"
	 width="161.896px" height="34.715px" viewBox="0 0 161.896 34.715" enable-background="new 0 0 161.896 34.715"
	 xml:space="preserve">
<line fill="none" stroke="#2C1A2C" stroke-width="3.869" stroke-miterlimit="10" x1="74.699" y1="4.837" x2="74.699" y2="29.622"/>
<ellipse fill="none" stroke="#2C1A2C" stroke-width="3.3504" stroke-miterlimit="10" cx="92.508" cy="19.518" rx="9.999" ry="8.689"/>
<path fill="none" stroke="#2C1A2C" stroke-width="3.3504" stroke-miterlimit="10" d="M124.511,4.112v23.212
	c0,0-15.932,3.604-16.441-7.807c-0.523-11.738,14.992-8.554,16.441-7.103"/>
<path fill="none" stroke="#2C1A2C" stroke-width="3.3504" stroke-miterlimit="10" d="M148.632,4.112v23.212
	c0,0-15.934,3.604-16.443-7.807c-0.525-11.738,14.992-8.554,16.443-7.103"/>
<line fill="none" stroke="#2C1A2C" stroke-width="3.3504" stroke-miterlimit="10" x1="158.044" y1="11.044" x2="158.044" y2="29.42"/>
<line fill="none" stroke="#2C1A2C" stroke-width="3.3504" stroke-miterlimit="10" x1="158.044" y1="3.991" x2="158.044" y2="7.739"/>
<line fill="none" stroke="#2C1A2C" stroke-width="3.3504" stroke-miterlimit="10" x1="48.06" y1="4.837" x2="48.06" y2="14.106"/>
<line fill="none" stroke="#2C1A2C" stroke-width="3.3504" stroke-miterlimit="10" x1="48.06" y1="20.112" x2="48.06" y2="29.381"/>
<path fill="none" stroke="#2C1A2C" stroke-width="3.3504" stroke-miterlimit="10" d="M55.476,16.806c0,0-2.701-3.707-7.416-3.867
	s-4.715,3.867-4.715,3.867s-0.562,3.886,4.715,3.871C52.98,20.661,55.476,16.806,55.476,16.806z"/>
<path fill="none" stroke="#2C1A2C" stroke-width="3.3504" stroke-miterlimit="10" d="M62.046,4.595c0,0,0.17,7.951-6.328,12.211"/>
<path fill="none" stroke="#2C1A2C" stroke-width="3.3504" stroke-miterlimit="10" d="M55.236,17.532c0,0,2.512,3.894,5.76,8.341
	c2.742,3.752,6.49,3.748,6.49,3.748"/>
<path fill="none" stroke="#AC8A8D" stroke-width="2.3857" stroke-miterlimit="10" d="M17.735,18.833
	c0.127-0.304,0.261-0.607,0.411-0.9c2.516-5.227,7.857-8.839,14.055-8.839c0.242,0,0.483,0.009,0.725,0.018
	c-2.301,5.69-7.865,9.703-14.378,9.739c-0.026,0-0.063,0-0.09,0C18.217,18.85,17.976,18.84,17.735,18.833
	c-6.232-0.285-11.521-4.227-13.742-9.739c0.024,0,0.062,0,0.088,0c6.189,0,11.542,3.612,14.065,8.839
	c0.143,0.303,0.274,0.606,0.401,0.918"/>
<path fill="none" stroke="#AC8A8D" stroke-width="2.3857" stroke-miterlimit="10" d="M13.972,12.643
	c0.277-3.835,1.936-7.287,4.485-9.855c2.445,2.461,4.077,5.726,4.451,9.375v0.008"/>
<line fill="none" stroke="#AC8A8D" stroke-width="2.3857" stroke-miterlimit="10" x1="18.459" y1="18.433" x2="18.459" y2="33.715"/>
<path fill="none" stroke="#AC8A8D" stroke-width="2.3857" stroke-miterlimit="10" d="M8.454,23.649
	c5.526,0,10.006,4.48,10.006,10.006"/>
<path fill="none" stroke="#AC8A8D" stroke-width="2.3857" stroke-miterlimit="10" d="M28.465,23.649
	c-5.526,0-10.006,4.48-10.006,10.006"/>
</svg>
