<svg xmlns="http://www.w3.org/2000/svg" viewBox="0 0 27.22 7.25"><defs><style>.cls-1,.cls-2{fill:#a2c654;}.cls-1{fill-rule:evenodd;}</style></defs><title>?????? 10</title><g id="????_2" data-name="???? 2"><g id="????_1-2" data-name="???? 1"><path class="cls-1" d="M.48,3.1l-.12,0a.21.21,0,0,0-.11.41l.12,0A.21.21,0,0,0,.48,3.1Z" transform="translate(0 0)"/><path class="cls-1" d="M1,2.56A.22.22,0,0,0,.8,2.3L.27,2.16a.21.21,0,1,0-.11.41l.53.14A.22.22,0,0,0,1,2.56Z" transform="translate(0 0)"/><path class="cls-1" d="M6.21,4.14a2.57,2.57,0,0,0,.36-2.3L5.48.44C4.91.25,4.22-.19,3.72.66A2.57,2.57,0,0,0,3.35,3L4,4.68C4.3,5.09,5.71,5,6.21,4.14Z" transform="translate(0 0)"/><path class="cls-1" d="M7.23,1.45,4.87.09c-.07,1,1,2.75-.07,3S5.23,2,5.12,1.72c.23,1.44-.83.3-.83,1,0,2-.05,2.91-.05.94,0-.68.47,2,.89.7L4.87.09a.61.61,0,0,0-.64,0L2.37,1.17l.4.11a.21.21,0,0,1-.11.41h0l-.81-.22h0l-.53-.14a.21.21,0,1,0-.11.41l.37.1h0L3,2.23a.22.22,0,0,1,.16.21V4.63l2.46.66L6.39,4a.21.21,0,1,1,.37.21L6,5.6H6a.22.22,0,0,1-.26.15L2.91,5a.22.22,0,0,1-.16-.22h0V2.6l-.31-.08h0L1.62,2.3h0l-.06,0h0a.21.21,0,0,0,0,.42l.69.19h.05a.21.21,0,0,1-.05.42h0l-.93-.25a.21.21,0,0,0-.11.41l.4.11.27.07a.21.21,0,1,1-.11.41l-.16,0v.66a.61.61,0,0,0,.32.56L4.23,6.63a.61.61,0,0,0,.64,0L7.22,5.28a.61.61,0,0,0,.32-.55V2A.61.61,0,0,0,7.23,1.45ZM3.89,5.77a.32.32,0,1,1-.22-.39A.32.32,0,0,1,3.89,5.77Zm1.21.32a.32.32,0,1,1-.22-.39A.32.32,0,0,1,5.1,6.09Z" transform="translate(0 0)"/><ellipse class="cls-2" cx="4.23" cy="7.14" rx="1.45" ry="0.11"/><path class="cls-2" d="M8.79,4.52V1H10.4a1.39,1.39,0,0,1,1,.36,1.1,1.1,0,0,1,.3.81A1.07,1.07,0,0,1,11,3.26l.86,1.26h-.9L10.16,3.4h-.6V4.52Zm.77-1.81h.78a.64.64,0,0,0,.44-.14.47.47,0,0,0,.16-.37.45.45,0,0,0-.16-.37.7.7,0,0,0-.45-.13H9.56Z" transform="translate(0 0)"/><path class="cls-2" d="M12.42,4.52V1h2.65v.69H13.19v.71h1.66v.69H13.19v.74H15.1v.69Z" transform="translate(0 0)"/><path class="cls-2" d="M16.6,4.52V1.72H15.53V1h2.91v.71H17.38v2.8Z" transform="translate(0 0)"/><path class="cls-2" d="M18.74,4.52,20.24,1H21l1.51,3.54h-.81l-.32-.79H19.85l-.32.79ZM20.12,3h.93l-.47-1.14Z" transform="translate(0 0)"/><path class="cls-2" d="M23,4.52V1h.77V4.52Z" transform="translate(0 0)"/><path class="cls-2" d="M24.69,4.52V1h.77V3.82h1.75v.7Z" transform="translate(0 0)"/><path class="cls-2" d="M9.76,5.14v1H9.46V5.39H9.11v.78H8.82v-1Z" transform="translate(0 0)"/><path class="cls-2" d="M10,6.48V5.14h.29v.15a.38.38,0,0,1,.32-.17.44.44,0,0,1,.33.14.54.54,0,0,1,.14.39.54.54,0,0,1-.14.39.45.45,0,0,1-.33.14A.4.4,0,0,1,10.31,6v.44Zm.36-.62a.23.23,0,0,0,.18.08.23.23,0,0,0,.18-.08.3.3,0,0,0,.07-.21.29.29,0,0,0-.07-.21.23.23,0,0,0-.18-.08.23.23,0,0,0-.18.08.3.3,0,0,0-.07.21A.3.3,0,0,0,10.38,5.87Z" transform="translate(0 0)"/><path class="cls-2" d="M12.23,6a.59.59,0,0,1-.8,0,.54.54,0,0,1,0-.76.59.59,0,0,1,.8,0,.54.54,0,0,1,0,.76Zm-.4-.1A.25.25,0,0,0,12,5.86a.29.29,0,0,0,.07-.2.29.29,0,0,0-.08-.2.25.25,0,0,0-.2-.08.25.25,0,0,0-.19.08.29.29,0,0,0-.07.2.29.29,0,0,0,.08.2A.25.25,0,0,0,11.83,5.94Z" transform="translate(0 0)"/><path class="cls-2" d="M13.4,6.17h-.65l0,.24h-.25V5.92h.11a1.75,1.75,0,0,0,.1-.69V5.14h.84v.78h.14l0,.49H13.4Zm-.51-.25h.35V5.39H13v0A1.42,1.42,0,0,1,12.9,5.92Z" transform="translate(0 0)"/><path class="cls-2" d="M14.09,6.49a.5.5,0,0,1-.26-.07l.1-.21a.25.25,0,0,0,.13,0,.11.11,0,0,0,.1-.07l-.4-1h.31l.24.7.23-.7h.3l-.4,1.06a.55.55,0,0,1-.13.22A.3.3,0,0,1,14.09,6.49Z" transform="translate(0 0)"/><path class="cls-2" d="M15,6.17v-1h.29v.42l.37-.42H16l-.38.42.43.61H15.7l-.28-.39-.13.14v.25Z" transform="translate(0 0)"/><path class="cls-2" d="M17,5.14v.25h-.31v.78h-.3V5.39h-.31V5.14Z" transform="translate(0 0)"/><path class="cls-2" d="M17.15,6.17v-1h.29v.34h.21a.48.48,0,0,1,.3.09.3.3,0,0,1,.11.25.33.33,0,0,1-.1.26.43.43,0,0,1-.29.09Zm.48-.47h-.18v.24h.19c.1,0,.14,0,.14-.12a.1.1,0,0,0,0-.08A.17.17,0,0,0,17.62,5.7Zm.58.47v-1h.29v1Z" transform="translate(0 0)"/><path class="cls-2" d="M20.27,5.14v1H20V5.39h-.35v.78h-.29v-1Z" transform="translate(0 0)"/><path class="cls-2" d="M21.5,5.14v1h-.28v-.6l-.4.6h-.28v-1h.28v.6l.4-.6Z" transform="translate(0 0)"/><path class="cls-2" d="M22.57,5.14v.25h-.31v.78H22V5.39h-.31V5.14Z" transform="translate(0 0)"/><path class="cls-2" d="M23,6.19a.38.38,0,0,1-.25-.08.29.29,0,0,1-.1-.23.29.29,0,0,1,.11-.25.5.5,0,0,1,.3-.08.78.78,0,0,1,.25,0v0q0-.19-.22-.19a.82.82,0,0,0-.29.06l-.07-.22a1,1,0,0,1,.4-.08.47.47,0,0,1,.35.12.45.45,0,0,1,.11.33v.6h-.28V6.06A.4.4,0,0,1,23,6.19Zm.09-.2a.25.25,0,0,0,.17-.05.16.16,0,0,0,.06-.13V5.76a.43.43,0,0,0-.19,0,.26.26,0,0,0-.15,0,.13.13,0,0,0-.05.11A.11.11,0,0,0,23,6,.19.19,0,0,0,23.11,6Z" transform="translate(0 0)"/><path class="cls-2" d="M24.81,5.14v1h-.29v-.4h-.36v.4h-.29v-1h.29v.4h.36v-.4Z" transform="translate(0 0)"/><path class="cls-2" d="M26,5.14v1h-.28v-.6l-.4.6h-.28v-1h.28v.6l.4-.6Z" transform="translate(0 0)"/><path class="cls-2" d="M27.22,5.14v1h-.29V5.84h-.16l-.22.33h-.34l.26-.38a.31.31,0,0,1-.22-.31.31.31,0,0,1,.11-.25.46.46,0,0,1,.31-.09Zm-.49.49h.2V5.37h-.2a.2.2,0,0,0-.13,0,.11.11,0,0,0,0,.1.11.11,0,0,0,0,.1A.2.2,0,0,0,26.72,5.63Z" transform="translate(0 0)"/></g></g></svg>