<svg xmlns="http://www.w3.org/2000/svg" viewBox="0 0 30.52 6.92"><defs><style>.cls-1,.cls-2{fill:#a2c654;}.cls-1{fill-rule:evenodd;}</style></defs><title>?????? 11</title><g id="????_2" data-name="???? 2"><g id="????_1-2" data-name="???? 1"><path class="cls-1" d="M.5,3.19l-.12,0a.22.22,0,0,0-.11.43l.12,0A.22.22,0,0,0,.5,3.19Z" transform="translate(0)"/><path class="cls-1" d="M1,2.64a.22.22,0,0,0-.16-.27L.28,2.22a.22.22,0,1,0-.11.43l.55.15A.22.22,0,0,0,1,2.64Z" transform="translate(0)"/><path class="cls-1" d="M6.39,4.26a2.64,2.64,0,0,0,.38-2.37L5.64.46c-.58-.2-1.3-.65-1.81.22A2.64,2.64,0,0,0,3.45,3l.67,1.76C4.43,5.24,5.88,5.13,6.39,4.26Z" transform="translate(0)"/><path class="cls-1" d="M7.44,1.49,5,.09c-.08,1.06,1.07,2.83-.08,3.06S5.38,2,5.26,1.77c.24,1.48-.86.31-.86,1,0,2-.06,3-.06,1,0-.7.49,2,.91.73L5,.09a.63.63,0,0,0-.66,0L2.44,1.2l.41.11a.22.22,0,0,1-.11.43h0L1.9,1.51h0l-.55-.15a.22.22,0,1,0-.11.43l.38.1h0l1.5.4a.22.22,0,0,1,.16.22V4.77l2.53.68.76-1.33A.22.22,0,1,1,7,4.34L6.14,5.76h0a.22.22,0,0,1-.27.16L3,5.15a.22.22,0,0,1-.16-.23h0V2.68l-.32-.09h0l-.85-.23h0l-.06,0h0a.22.22,0,0,0,0,.43L2.27,3l.06,0h0a.22.22,0,0,1-.06.43h0l-1-.26a.22.22,0,0,0-.11.43l.41.11.28.07a.22.22,0,1,1-.11.43l-.16,0v.68a.63.63,0,0,0,.33.57l2.42,1.4a.63.63,0,0,0,.66,0l2.42-1.4a.63.63,0,0,0,.33-.57V2.07A.63.63,0,0,0,7.44,1.49ZM4,5.94a.33.33,0,1,1-.23-.4A.33.33,0,0,1,4,5.94Zm1.25.33A.33.33,0,1,1,5,5.87.33.33,0,0,1,5.25,6.27Z" transform="translate(0)"/><path class="cls-2" d="M9.51.36V1.48H9.19V.63H8.81v.85H8.49V.36Z" transform="translate(0)"/><path class="cls-2" d="M9.8,1.82V.36h.32V.52a.42.42,0,0,1,.35-.18.48.48,0,0,1,.36.16A.59.59,0,0,1,11,.92a.59.59,0,0,1-.15.42.48.48,0,0,1-.36.16.44.44,0,0,1-.35-.17v.48Zm.39-.67a.25.25,0,0,0,.19.09.25.25,0,0,0,.19-.09.32.32,0,0,0,.08-.23.32.32,0,0,0-.08-.22.25.25,0,0,0-.19-.09.25.25,0,0,0-.19.09.33.33,0,0,0-.08.23A.32.32,0,0,0,10.19,1.14Z" transform="translate(0)"/><path class="cls-2" d="M12.2,1.34a.64.64,0,0,1-.87,0,.56.56,0,0,1-.17-.42.56.56,0,0,1,.18-.42.64.64,0,0,1,.87,0,.56.56,0,0,1,.17.42A.56.56,0,0,1,12.2,1.34Zm-.43-.1A.27.27,0,0,0,12,1.14a.32.32,0,0,0,.08-.22A.32.32,0,0,0,12,.7a.27.27,0,0,0-.21-.09.27.27,0,0,0-.21.09.32.32,0,0,0-.08.22.31.31,0,0,0,.08.22A.27.27,0,0,0,11.77,1.23Z" transform="translate(0)"/><path class="cls-2" d="M13.48,1.48h-.7l0,.26h-.27V1.21h.12a1.91,1.91,0,0,0,.11-.76V.36h.92v.85h.15l0,.54h-.27Zm-.55-.27h.38V.63H13v0A1.55,1.55,0,0,1,12.93,1.21Z" transform="translate(0)"/><path class="cls-2" d="M14.23,1.82a.55.55,0,0,1-.28-.08l.11-.23a.27.27,0,0,0,.14,0,.12.12,0,0,0,.11-.07L13.86.36h.34l.26.77L14.7.36H15L14.6,1.51a.6.6,0,0,1-.15.24A.33.33,0,0,1,14.23,1.82Z" transform="translate(0)"/><path class="cls-2" d="M15.22,1.48V.36h.32V.82l.4-.46h.37l-.41.46.47.66H16l-.3-.43-.14.16v.27Z" transform="translate(0)"/><path class="cls-2" d="M17.38.36V.63H17v.85h-.32V.63h-.33V.36Z" transform="translate(0)"/><path class="cls-2" d="M17.55,1.48V.36h.32V.73h.23a.52.52,0,0,1,.33.09.33.33,0,0,1,.12.28.36.36,0,0,1-.11.28.46.46,0,0,1-.32.1ZM18.07,1h-.2v.26h.2c.1,0,.16,0,.16-.13a.11.11,0,0,0,0-.09A.18.18,0,0,0,18.07,1Zm.63.51V.36H19V1.48Z" transform="translate(0)"/><path class="cls-2" d="M21,.36V1.48h-.32V.63h-.38v.85h-.32V.36Z" transform="translate(0)"/><path class="cls-2" d="M22.28.36V1.48H22V.83l-.44.65h-.3V.36h.31V1L22,.36Z" transform="translate(0)"/><path class="cls-2" d="M23.45.36V.63h-.33v.85h-.32V.63h-.33V.36Z" transform="translate(0)"/><path class="cls-2" d="M23.94,1.5a.41.41,0,0,1-.28-.09.32.32,0,0,1-.11-.26.31.31,0,0,1,.12-.27A.55.55,0,0,1,24,.8a.83.83,0,0,1,.27,0v0q0-.21-.24-.21a.91.91,0,0,0-.31.06L23.65.43a1.08,1.08,0,0,1,.44-.09.51.51,0,0,1,.38.13.48.48,0,0,1,.12.36v.65h-.31V1.36A.43.43,0,0,1,23.94,1.5Zm.1-.22a.28.28,0,0,0,.18-.06.17.17,0,0,0,.07-.14V1a.48.48,0,0,0-.2,0,.28.28,0,0,0-.16,0,.14.14,0,0,0-.06.12.12.12,0,0,0,0,.1A.2.2,0,0,0,24,1.28Z" transform="translate(0)"/><path class="cls-2" d="M25.89.36V1.48h-.32V1.05h-.39v.43h-.32V.36h.32V.79h.39V.36Z" transform="translate(0)"/><path class="cls-2" d="M27.22.36V1.48h-.31V.83l-.44.65h-.3V.36h.31V1l.44-.66Z" transform="translate(0)"/><path class="cls-2" d="M28.5.36V1.48h-.32V1.12H28l-.24.36h-.37l.29-.41a.33.33,0,0,1-.23-.33.34.34,0,0,1,.12-.27.5.5,0,0,1,.34-.1ZM28,.89h.22V.61H28a.22.22,0,0,0-.14,0,.12.12,0,0,0,0,.11.12.12,0,0,0,0,.1A.22.22,0,0,0,28,.89Z" transform="translate(0)"/><path class="cls-2" d="M8.5,6.76V2.56h1.92A1.66,1.66,0,0,1,11.64,3,1.31,1.31,0,0,1,12,4a1.28,1.28,0,0,1-.9,1.3l1,1.5H11l-.91-1.34H9.42V6.76ZM9.42,4.6h.94a.76.76,0,0,0,.52-.17A.56.56,0,0,0,11.06,4a.54.54,0,0,0-.19-.45.83.83,0,0,0-.53-.15H9.42Z" transform="translate(0)"/><path class="cls-2" d="M12.83,6.76V2.56H16v.82H13.75v.85h2v.82h-2v.88H16v.82Z" transform="translate(0)"/><path class="cls-2" d="M17.83,6.76V3.41H16.55V2.56H20v.85H18.76V6.76Z" transform="translate(0)"/><path class="cls-2" d="M20.38,6.76l1.8-4.23H23l1.8,4.23h-1l-.38-.94H21.71l-.38.94ZM22,5h1.12L22.6,3.64Z" transform="translate(0)"/><path class="cls-2" d="M25.52,6.76V2.56h.92v4.2Z" transform="translate(0)"/><path class="cls-2" d="M27.5,6.76V2.56h.92V5.92h2.09v.84Z" transform="translate(0)"/></g></g></svg>