<?xml version="1.0" encoding="utf-8"?>
<!-- Generator: Adobe Illustrator 20.1.0, SVG Export Plug-In . SVG Version: 6.00 Build 0)  -->
<svg version="1.1" id="Слой_1" xmlns="http://www.w3.org/2000/svg" xmlns:xlink="http://www.w3.org/1999/xlink" x="0px" y="0px"
	 viewBox="0 0 500 120.7" style="enable-background:new 0 0 500 120.7;" xml:space="preserve">
<style type="text/css">
	.st0{fill:#81bc3d;}
</style>
<g style="">
	<g>
		<g>
			<g>
				<path class="st0" d="M37.6,52.1l-1.9-0.5c-1.8-0.5-3.7,0.6-4.1,2.4c-0.5,1.8,0.6,3.7,2.4,4.1l1.9,0.5c1.8,0.5,3.7-0.6,4.1-2.4
					C40.5,54.4,39.4,52.6,37.6,52.1z"/>
				<path class="st0" d="M45,43.6c0.5-1.8-0.6-3.7-2.4-4.1l-8.4-2.3c-1.8-0.5-3.7,0.6-4.1,2.4c-0.5,1.8,0.6,3.7,2.4,4.1l8.4,2.3
					C42.7,46.5,44.6,45.4,45,43.6z"/>
				<g>
					<path class="st0" d="M128,68.4c7.9-13.4,10.5-29.7,5.8-36.3l-17.3-22c-8.9-3-19.9-9.9-27.8,3.4c-8,13.5-10.6,29.8-5.8,36.4
						l10.2,27C97.8,83.5,120.1,81.8,128,68.4z"/>
					<path class="st0" d="M144,26L106.8,4.6c-1.2,16.3,16.4,43.3-1.2,46.9c-16.2,3.3,6.8-17.5,5-21.2C114.2,53,97.5,35,97.5,46.2
						c0,31.2-0.9,46-0.9,14.8c0-10.7,7.5,30.8,14,11.1l-3.8-67.4c-3.3-1.9-6.8-2-10.1-0.1l-29.4,17l6.3,1.7c1.8,0.5,2.9,2.3,2.4,4.1
						c-0.5,1.8-2.3,2.9-4.1,2.4h-0.1l-12.7-3.4l0,0l-8.4-2.2c-1.8-0.5-3.7,0.6-4.1,2.4c-0.5,1.8,0.6,3.7,2.4,4.1l5.9,1.6l0,0l23,6.2
						c1.5,0.4,2.5,1.8,2.5,3.4l-0.1,34.5L119,86.7l11.7-20.4c0.9-1.6,3-2.2,4.6-1.2c1.6,0.9,2.2,3,1.2,4.6L124,91.5l0,0
						c-0.5,1.8-2.3,2.9-4.1,2.4l-44-11.8c-1.6-0.4-2.6-1.9-2.5-3.5l0,0l0.1-34.4l-4.9-1.3l0,0l-13-3.5h-0.1l-1-0.3v0.2
						c-1.4,0.1-2.7,1.1-3.1,2.5c-0.5,1.8,0.6,3.7,2.4,4.1l10.9,2.9l0.9,0.2l0,0c1.8,0.5,2.9,2.3,2.4,4.1c-0.4,1.5-1.8,2.5-3.3,2.5
						v0.1L50,51.9c-1.8-0.5-3.7,0.6-4.1,2.4c-0.5,1.8,0.6,3.7,2.4,4.1l6.2,1.7l4.3,1.1c1.8,0.5,2.9,2.3,2.4,4.1s-2.3,2.9-4.1,2.4
						L54.6,67v10.4c0,3.8,1.7,6.9,5,8.8l37.1,21.4c3.3,1.9,6.8,2,10.1,0.1l37.1-21.4c3.3-1.9,5.1-4.9,5.1-8.7V34.7
						C149,31,147.3,27.9,144,26z M91.4,94.2c-0.7,2.7-3.5,4.2-6.1,3.5c-2.7-0.7-4.2-3.5-3.5-6.1c0.7-2.7,3.5-4.2,6.1-3.5
						C90.5,88.8,92.1,91.5,91.4,94.2z M110.5,99.3c-0.7,2.7-3.5,4.2-6.1,3.5c-2.7-0.7-4.2-3.5-3.5-6.1c0.7-2.7,3.5-4.2,6.1-3.5
						S111.2,96.6,110.5,99.3z"/>
				</g>
				<ellipse class="st0" cx="96.6" cy="115.8" rx="22.8" ry="1.7"/>
			</g>
		</g>
		<g>
			<path class="st0" d="M168.7,74.4V13.7h27.8c7.7,0,13.6,2.1,17.7,6.2c3.5,3.5,5.2,8.2,5.2,14.1c0,9.3-4.3,15.6-13,18.8l14.8,21.7
				h-15.6L192.4,55H182v19.4H168.7z M182,43.2h13.5c3.2,0,5.8-0.8,7.6-2.4c1.8-1.6,2.7-3.7,2.7-6.4c0-2.8-0.9-5-2.8-6.5
				c-1.9-1.5-4.4-2.2-7.7-2.2H182V43.2z"/>
			<path class="st0" d="M231.4,74.4V13.7h45.8v11.9h-32.6v12.3h28.7v11.9h-28.7v12.8h33v11.9L231.4,74.4L231.4,74.4z"/>
			<path class="st0" d="M303.8,74.4V26h-18.5V13.7h50.4V26h-18.5v48.4H303.8z"/>
			<path class="st0" d="M336.3,74.4l26-61.2h12.3l26,61.2h-14L381,60.8h-25.7l-5.6,13.6H336.3z M360.2,49h16.1l-8.1-19.7L360.2,49z"
				/>
			<path class="st0" d="M410.7,74.4V13.7H424v60.8L410.7,74.4L410.7,74.4z"/>
			<path class="st0" d="M439.2,74.4V13.7h13.4v48.6h30.3v12.2L439.2,74.4L439.2,74.4z"/>
		</g>
		<g>
			<path class="st0" d="M185.1,85.3v17.6h-5V89.5h-6v13.4h-5V85.3H185.1z"/>
			<path class="st0" d="M189.6,108.2V85.3h5v2.5c1.4-1.9,3.2-2.9,5.5-2.9c2.2,0,4.1,0.8,5.7,2.5s2.4,3.9,2.4,6.7
				c0,2.8-0.8,5-2.4,6.7c-1.6,1.6-3.5,2.4-5.7,2.4s-4-0.9-5.5-2.6v7.6H189.6z M195.8,97.6c0.8,0.9,1.8,1.4,3,1.4s2.2-0.5,3.1-1.4
				c0.8-0.9,1.3-2.1,1.3-3.6c0-1.4-0.4-2.6-1.3-3.5c-0.8-0.9-1.9-1.4-3.1-1.4c-1.2,0-2.2,0.5-3,1.4s-1.2,2.1-1.2,3.6
				C194.5,95.6,194.9,96.7,195.8,97.6z"/>
			<path class="st0" d="M227.3,100.6c-1.8,1.8-4.1,2.7-6.8,2.7s-5-0.9-6.8-2.7c-1.8-1.8-2.7-3.9-2.7-6.5s0.9-4.7,2.7-6.5
				s4.1-2.7,6.8-2.7s5,0.9,6.8,2.7c1.8,1.8,2.7,3.9,2.7,6.5S229.1,98.9,227.3,100.6z M220.5,99c1.4,0,2.5-0.5,3.3-1.4
				s1.3-2.1,1.3-3.5c0-1.3-0.4-2.5-1.3-3.4c-0.9-1-2-1.4-3.3-1.4c-1.4,0-2.5,0.5-3.3,1.4s-1.2,2.1-1.2,3.5c0,1.3,0.4,2.5,1.3,3.4
				C218,98.5,219.2,99,220.5,99z"/>
			<path class="st0" d="M247.3,102.9h-11.1l-0.4,4.1h-4.2v-8.4h1.9c1.1-2.4,1.7-6.4,1.7-11.8v-1.5h14.4v13.3h2.4l-0.6,8.4h-4.2v-4.1
				H247.3z M238.7,98.6h6v-9.1H240v0.4C240,93.7,239.5,96.6,238.7,98.6z"/>
			<path class="st0" d="M259.1,108.3c-1.6,0-3.1-0.4-4.4-1.2l1.7-3.6c0.8,0.5,1.5,0.7,2.1,0.7c0.8,0,1.4-0.4,1.7-1.2l-6.9-17.7h5.3
				l4,12l3.9-12h5.2l-6.8,18.1c-0.7,1.8-1.4,3.1-2.3,3.8C261.7,107.9,260.5,108.3,259.1,108.3z"/>
			<path class="st0" d="M274.6,102.9V85.3h5v7.2l6.3-7.2h5.8l-6.5,7.2l7.3,10.4h-5.9l-4.7-6.7l-2.3,2.5v4.2H274.6z"/>
			<path class="st0" d="M308.5,85.3v4.3h-5.2V103h-5.1V89.5H293v-4.3h15.5V85.3z"/>
			<path class="st0" d="M311.2,102.9V85.3h5v5.8h3.6c2.1,0,3.8,0.5,5.1,1.5c1.3,1,1.9,2.4,1.9,4.3s-0.6,3.3-1.8,4.4
				c-1.2,1.1-2.9,1.6-5,1.6C320,102.9,311.2,102.9,311.2,102.9z M319.3,94.9h-3.1V99h3.2c1.6,0,2.5-0.7,2.5-2.1
				c0-0.6-0.2-1.1-0.6-1.4C320.8,95.1,320.2,94.9,319.3,94.9z M329.2,102.9V85.3h5v17.6H329.2z"/>
			<path class="st0" d="M364.6,85.3v17.6h-5V89.5h-6v13.4h-5V85.3H364.6z"/>
			<path class="st0" d="M385.5,85.3v17.6h-4.8V92.6l-6.9,10.3h-4.7V85.3h4.8v10.3l6.9-10.3H385.5z"/>
			<path class="st0" d="M403.7,85.3v4.3h-5.2V103h-5.1V89.5h-5.2v-4.3h15.5V85.3z"/>
			<path class="st0" d="M411.5,103.2c-1.7,0-3.2-0.5-4.3-1.4c-1.1-1-1.7-2.3-1.7-4c0-1.9,0.6-3.3,1.9-4.2c1.3-1,3-1.4,5.2-1.4
				c1.5,0,2.9,0.2,4.3,0.7v-0.3c0-2.2-1.3-3.2-3.8-3.2c-1.5,0-3.1,0.3-4.9,1l-1.2-3.8c2.1-0.9,4.4-1.4,6.8-1.4c2.7,0,4.6,0.7,6,2
				c1.3,1.3,1.9,3.1,1.9,5.6V103h-4.8v-2C415.5,102.5,413.7,103.2,411.5,103.2z M413,99.8c1.2,0,2.1-0.3,2.8-0.9
				c0.7-0.6,1.1-1.3,1.1-2.2v-0.9c-0.9-0.4-2-0.7-3.2-0.7c-1.1,0-1.9,0.2-2.6,0.6c-0.6,0.4-0.9,1-0.9,1.9c0,0.7,0.3,1.2,0.8,1.6
				C411.5,99.6,412.2,99.8,413,99.8z"/>
			<path class="st0" d="M442.1,85.3v17.6h-5v-6.7h-6.2v6.7h-5V85.3h5V92h6.2v-6.8h5V85.3z"/>
			<path class="st0" d="M463,85.3v17.6h-4.8V92.6l-6.9,10.3h-4.7V85.3h4.8v10.3l6.9-10.3H463z"/>
			<path class="st0" d="M483.1,85.3v17.6h-5v-5.7h-2.7l-3.7,5.7h-5.8l4.5-6.5c-2.5-0.9-3.7-2.7-3.7-5.3c0-1.8,0.6-3.2,1.9-4.3
				c1.2-1.1,3-1.6,5.3-1.6h9.2V85.3z M474.7,93.6h3.4v-4.4h-3.4c-0.9,0-1.6,0.2-2.1,0.6s-0.8,0.9-0.8,1.7c0,0.7,0.3,1.2,0.8,1.6
				C473.1,93.4,473.8,93.6,474.7,93.6z"/>
		</g>
	</g>
</g>
</svg>
