<svg xmlns="http://www.w3.org/2000/svg" viewBox="0 0 35.14 9.15"><defs><style>.cls-1,.cls-3{fill:#a2c654;}.cls-1,.cls-2{fill-rule:evenodd;}.cls-2{fill:#8da04c;}</style></defs><title>?????? 12</title><g id="????_2" data-name="???? 2"><g id="????_1-2" data-name="???? 1"><path class="cls-1" d="M3.52,4.46a.08.08,0,0,0-.08-.08.08.08,0,0,0-.08.08.07.07,0,0,0,0,.06v.41c0,.6.92.67.92.06v-.5a.08.08,0,0,0,0-.06.08.08,0,0,0-.08-.08.08.08,0,0,0-.08.08.08.08,0,0,0,0,.06V5c0,.48-.72.41-.72-.06V4.51A.07.07,0,0,0,3.52,4.46Z"/><path class="cls-1" d="M3.06,6.09a.18.18,0,0,0,.07.24l.61.36a.18.18,0,1,0,.18-.31L3.31,6A.18.18,0,0,0,3.06,6.09Z"/><path class="cls-1" d="M3.39,5.46a.18.18,0,0,0,.07.24l1.09.63A.18.18,0,1,0,4.73,6L3.64,5.39A.18.18,0,0,0,3.39,5.46Z"/><path class="cls-1" d="M2.57,6a.18.18,0,1,0,.18-.31l-.14-.08a.18.18,0,0,0-.18.31Z"/><path class="cls-1" d="M1,4.05A.18.18,0,0,0,.9,3.81L.27,3.45a.18.18,0,0,0-.18.31l.63.36A.18.18,0,0,0,1,4.05Z"/><path class="cls-1" d="M2.25,5.62a.18.18,0,0,0-.07-.24L.62,4.47a.18.18,0,0,0-.18.31L2,5.69A.18.18,0,0,0,2.25,5.62Z"/><path class="cls-1" d="M1.42,6.17,3,7.09c.22.13.38-.19.21-.29L1.6,5.86a.18.18,0,0,0-.18.31Z"/><path class="cls-1" d="M1.1,5.57.76,5.38a.18.18,0,0,0-.18.31l.33.19a.18.18,0,0,0,.18-.31Z"/><path class="cls-1" d="M8.85,2,5.82.13A.74.74,0,0,0,5,.13L2,2a.86.86,0,0,0-.41.77v.59L.94,3a.18.18,0,0,0-.18.31l.94.54a.18.18,0,0,1-.17.31L1.4,4.1a.18.18,0,0,0-.18.31l1.68,1a.18.18,0,0,0,.18-.31l.09.05h0l-1-.55a.18.18,0,0,1,.07-.33l.72,0,.73,0H3.9l1.38,0,.57.13.26,2-.17-2,.49-.19.3,2.47.21,1.07L5,8.62,3.8,7.95l-.07,0L1.85,6.83h0l-.23-.14A.18.18,0,0,0,1.44,7l.13.07V8a.69.69,0,0,0,.7.77H8.43A.78.78,0,0,0,9.26,8V2.79A.86.86,0,0,0,8.85,2ZM5.27,3.16c.09.27-.08.48-.44.54a1.3,1.3,0,0,1,.22-.35,1.13,1.13,0,0,0-.24.33.79.79,0,0,0-.17-.24.91.91,0,0,1,.15.24c-.2,0-.34-.14-.3-.38a.4.4,0,0,1,.3.14A.46.46,0,0,1,5.27,3.16ZM3.92,1.39c.19,0,.42.2.63.62a.47.47,0,0,1-.38.28.62.62,0,0,1-.32,0s0,0,0,0a.66.66,0,0,0,.41.08.51.51,0,0,0,.35-.22c0,.11.1.23.14.35a.47.47,0,0,1-.4.37.62.62,0,0,1-.32,0s0,0,0,0a.66.66,0,0,0,.41.08.5.5,0,0,0,.38-.25c0,.13.08.27.11.41v.05a.53.53,0,0,0-.17.14.76.76,0,0,0-.36-.08,1.05,1.05,0,0,0,0,.32A.5.5,0,0,0,4,3.68l-.18-.07-.07-.26C3.53,2.34,3.6,1.46,3.92,1.39ZM3.87,4a1.11,1.11,0,0,0,0,.14l-1.16,0A1,1,0,0,1,3,3.88L2.76,2.79s-.11,0-.13-.05l0-.18a.09.09,0,0,1,.05-.12l.62-.16a.09.09,0,0,1,.1.08l0,.18c0,.05,0,.08-.07.1L3.64,3.7a1.21,1.21,0,0,1,.3.07A.54.54,0,0,0,3.87,4Zm1.72.14v0l-.3-.07L4,4.1A1,1,0,0,1,4,4a.39.39,0,0,1,.42-.35c.19,0,.33.19.6.07S5.6,3.71,5.59,4.11ZM6.14,4,5.78,3.9,6.12,4l0,.08-.18.09L5.7,4.16a.49.49,0,0,0,0-.11h0l0,0a.62.62,0,0,0-.15-.41l.27,0s-.29-.09-.47-.17a.44.44,0,0,0,0-.28.28.28,0,0,1,.29-.06L6,3.27C6.27,3.35,6.27,3.62,6.14,4ZM6,3.21l-.27-.09c.08-.24-.3-.67-.18-.78s.35.47.33.6c.16-.24.08-.89.35-.78S6.12,2.74,6,3c.08-.12.4-.36.54-.2S6.14,3,6,3.21ZM7.84,5.85a.08.08,0,0,1-.08.08H7.28a.08.08,0,0,1-.08-.08V5.37a.08.08,0,0,1,.08-.08h.48a.08.08,0,0,1,.08.08Zm0-.86a.08.08,0,0,1-.08.08H7.28A.08.08,0,0,1,7.2,5V4.51a.08.08,0,0,1,.08-.08h.48a.08.08,0,0,1,.08.08Zm.88.86a.08.08,0,0,1-.08.08H8.16a.08.08,0,0,1-.08-.08V5.37a.08.08,0,0,1,.08-.08h.48a.08.08,0,0,1,.08.08Zm0-.86a.08.08,0,0,1-.08.08H8.16A.08.08,0,0,1,8.08,5V4.51a.08.08,0,0,1,.08-.08h.48a.08.08,0,0,1,.08.08Z"/><path class="cls-1" d="M5.84,3.68h0Z"/><polygon class="cls-2" points="6.69 4.1 6.44 4.18 6.73 6.54 6.94 7.64 6.8 6.54 6.69 4.1"/><path class="cls-3" d="M10.84,6.12V1.48H13A1.83,1.83,0,0,1,14.31,2,1.45,1.45,0,0,1,14.71,3a1.41,1.41,0,0,1-1,1.44l1.13,1.65H13.66l-1-1.48h-.79V6.12Zm1-2.38h1a.84.84,0,0,0,.58-.18.62.62,0,0,0,.21-.49.59.59,0,0,0-.21-.49.92.92,0,0,0-.59-.17h-1Z"/><path class="cls-3" d="M15.63,6.12V1.48h3.49v.91H16.64v.94h2.18v.91H16.64v1h2.52v.91Z"/><path class="cls-3" d="M21.14,6.12V2.42H19.73V1.48h3.84v.94H22.16V6.12Z"/><path class="cls-3" d="M24,6.12l2-4.67h.94l2,4.67H27.8l-.42-1h-2l-.42,1Zm1.83-1.94H27l-.62-1.5Z"/><path class="cls-3" d="M29.63,6.12V1.48h1V6.12Z"/><path class="cls-3" d="M31.81,6.12V1.48h1V5.19h2.31v.93Z"/><path class="cls-3" d="M12,7.37V8.73h-.39v-1h-.47v1h-.39V7.37Z"/><path class="cls-3" d="M12.35,9.14V7.37h.39v.2a.51.51,0,0,1,.43-.22.59.59,0,0,1,.44.19.83.83,0,0,1,0,1,.59.59,0,0,1-.44.19.53.53,0,0,1-.43-.2v.59Zm.48-.82a.31.31,0,0,0,.24.11.31.31,0,0,0,.24-.11A.4.4,0,0,0,13.4,8a.39.39,0,0,0-.1-.27.31.31,0,0,0-.24-.11.31.31,0,0,0-.24.11.4.4,0,0,0-.1.28A.39.39,0,0,0,12.83,8.32Z"/><path class="cls-3" d="M15.28,8.56a.73.73,0,0,1-.53.21.72.72,0,0,1-.53-.21.71.71,0,0,1,0-1,.78.78,0,0,1,1.06,0,.71.71,0,0,1,0,1Zm-.53-.13A.33.33,0,0,0,15,8.32a.39.39,0,0,0,.1-.27.38.38,0,0,0-.1-.27.33.33,0,0,0-.26-.11.33.33,0,0,0-.26.11.39.39,0,0,0-.1.27.38.38,0,0,0,.1.27A.33.33,0,0,0,14.75,8.43Z"/><path class="cls-3" d="M16.83,8.73H16l0,.32h-.33V8.4h.15a2.33,2.33,0,0,0,.13-.92V7.37H17v1h.19l0,.65h-.33Zm-.67-.33h.47V7.7h-.37v0A1.89,1.89,0,0,1,16.16,8.4Z"/><path class="cls-3" d="M17.74,9.15a.67.67,0,0,1-.34-.09l.13-.28a.32.32,0,0,0,.17.05.14.14,0,0,0,.14-.09L17.3,7.37h.41L18,8.3l.3-.93h.4l-.53,1.4a.72.72,0,0,1-.18.3A.4.4,0,0,1,17.74,9.15Z"/><path class="cls-3" d="M19,8.73V7.37h.39v.56l.49-.56h.45l-.5.56.57.81h-.46l-.37-.52-.18.19v.33Z"/><path class="cls-3" d="M21.58,7.37V7.7h-.41v1h-.39v-1h-.41V7.37Z"/><path class="cls-3" d="M21.79,8.73V7.37h.39v.45h.28a.64.64,0,0,1,.4.11.4.4,0,0,1,.15.34.43.43,0,0,1-.14.34.56.56,0,0,1-.39.12Zm.63-.62h-.24v.32h.25c.13,0,.19-.05.19-.16a.14.14,0,0,0,0-.11A.22.22,0,0,0,22.42,8.11Zm.77.62V7.37h.39V8.73Z"/><path class="cls-3" d="M25.94,7.37V8.73h-.39v-1h-.47v1h-.39V7.37Z"/><path class="cls-3" d="M27.56,7.37V8.73h-.38v-.8l-.53.8h-.37V7.37h.38v.8l.53-.8Z"/><path class="cls-3" d="M29,7.37V7.7h-.41v1h-.39v-1h-.41V7.37Z"/><path class="cls-3" d="M29.58,8.76a.51.51,0,0,1-.34-.11.38.38,0,0,1-.13-.31A.38.38,0,0,1,29.26,8a.67.67,0,0,1,.4-.11A1,1,0,0,1,30,8v0q0-.25-.29-.25a1.09,1.09,0,0,0-.38.07l-.1-.3a1.3,1.3,0,0,1,.53-.11.63.63,0,0,1,.46.15.59.59,0,0,1,.15.44v.79H30V8.59A.53.53,0,0,1,29.58,8.76Zm.12-.27a.34.34,0,0,0,.22-.07A.21.21,0,0,0,30,8.25V8.18a.59.59,0,0,0-.25-.05.34.34,0,0,0-.2,0,.16.16,0,0,0-.07.14.15.15,0,0,0,.06.12A.25.25,0,0,0,29.69,8.49Z"/><path class="cls-3" d="M32,7.37V8.73h-.39V8.21h-.48v.52H30.7V7.37h.39v.53h.48V7.37Z"/><path class="cls-3" d="M33.58,7.37V8.73H33.2v-.8l-.53.8H32.3V7.37h.38v.8l.53-.8Z"/><path class="cls-3" d="M35.14,7.37V8.73h-.39V8.3h-.21l-.29.44H33.8l.35-.5a.41.41,0,0,1-.29-.41A.42.42,0,0,1,34,7.49a.61.61,0,0,1,.41-.12ZM34.48,8h.26V7.67h-.27a.27.27,0,0,0-.17,0,.15.15,0,0,0-.06.13.15.15,0,0,0,.06.13A.28.28,0,0,0,34.48,8Z"/></g></g></svg>