<?xml version="1.0" encoding="utf-8"?>
<!-- Generator: Adobe Illustrator 16.0.0, SVG Export Plug-In . SVG Version: 6.00 Build 0)  -->
<!DOCTYPE svg PUBLIC "-//W3C//DTD SVG 1.1//EN" "http://www.w3.org/Graphics/SVG/1.1/DTD/svg11.dtd">
<svg version="1.1" id="Слой_1" xmlns="http://www.w3.org/2000/svg" xmlns:xlink="http://www.w3.org/1999/xlink" x="0px" y="0px"
	 width="16.75px" height="20.625px" viewBox="0 0 16.75 20.625" enable-background="new 0 0 16.75 20.625" xml:space="preserve">
<g>
	<defs>
		<path id="SVGID_1_" d="M6.152,9.381c-3.049,2.22-4.725,5.671-5.027,10.354h14.651c-0.057-3.981-1.675-7.433-4.854-10.354
			C6.152,4.998,10.727,6.052,6.152,9.381z"/>
	</defs>
	<clipPath id="SVGID_2_">
		<use xlink:href="#SVGID_1_"  overflow="visible"/>
	</clipPath>
	<g clip-path="url(#SVGID_2_)">
		<defs>
			<rect id="SVGID_3_" x="-1390.875" y="-51.524" width="1440" height="1149"/>
		</defs>
		<clipPath id="SVGID_4_">
			<use xlink:href="#SVGID_3_"  overflow="visible"/>
		</clipPath>
		<rect x="-3.875" y="1.476" clip-path="url(#SVGID_4_)" fill="#FFFFFF" width="24.651" height="23.26"/>
	</g>
</g>
<g>
	<defs>
		<rect id="SVGID_5_" x="-1390.875" y="-51.524" width="1440" height="1149"/>
	</defs>
	<clipPath id="SVGID_6_">
		<use xlink:href="#SVGID_5_"  overflow="visible"/>
	</clipPath>
	<path clip-path="url(#SVGID_6_)" fill="none" stroke="#81b668" stroke-width="1.1" stroke-miterlimit="10" d="M6.152,9.381
		c-3.049,2.22-4.725,5.671-5.027,10.354h14.651c-0.057-3.981-1.675-7.433-4.854-10.354C6.152,4.998,10.727,6.052,6.152,9.381z"/>
</g>
<g>
	<defs>
		<circle id="SVGID_7_" cx="8.375" cy="5.726" r="4.25"/>
	</defs>
	<clipPath id="SVGID_8_">
		<use xlink:href="#SVGID_7_"  overflow="visible"/>
	</clipPath>
	<g clip-path="url(#SVGID_8_)">
		<defs>
			<rect id="SVGID_9_" x="-1390.875" y="-51.524" width="1440" height="1149"/>
		</defs>
		<clipPath id="SVGID_10_">
			<use xlink:href="#SVGID_9_"  overflow="visible"/>
		</clipPath>
		<rect x="-0.875" y="-3.524" clip-path="url(#SVGID_10_)" fill="#FFFFFF" width="18.5" height="18.5"/>
	</g>
</g>
<g>
	<defs>
		<rect id="SVGID_11_" x="-1390.875" y="-51.524" width="1440" height="1149"/>
	</defs>
	<clipPath id="SVGID_12_">
		<use xlink:href="#SVGID_11_"  overflow="visible"/>
	</clipPath>
	
		<circle clip-path="url(#SVGID_12_)" fill="none" stroke="#81b668" stroke-width="1.1" stroke-miterlimit="10" cx="8.375" cy="5.726" r="4.25"/>
</g>
</svg>
