<?xml version="1.0" encoding="UTF-8"?>
<svg width="59px" height="55px" viewBox="0 0 59 55" version="1.1" xmlns="http://www.w3.org/2000/svg" xmlns:xlink="http://www.w3.org/1999/xlink">
    <!-- Generator: Sketch 50.2 (55047) - http://www.bohemiancoding.com/sketch -->
    <g id="Page-1" stroke="none" stroke-width="1" fill="none" fill-rule="evenodd">
        <g id="Main-" transform="translate(-691.000000, -32.000000)" stroke="#80b366" stroke-width="1.5">
            <g id="????" transform="translate(689.000000, 29.000000)">
                <g id="Group-2" transform="translate(26.000000, 5.000000)">
                    <g id="Group">
                        <path d="M5.5737906,17.0411719 C12.4980485,17.0411719 12.4980485,11.3607813 5.5737906,0 C-1.35046727,11.3607813 -1.35046727,17.0411719 5.5737906,17.0411719 Z" id="Oval-8"></path>
                        <path d="M5.5,7.61414063 L5.5,21.2108203" id="Path-7"></path>
                        <polyline id="Path-8" points="2.75 10.8773438 5.5 13.7779688 8.25 10.8773438"></polyline>
                    </g>
                    <g id="Group-Copy" transform="translate(5.500000, 40.000000) rotate(-180.000000) translate(-5.500000, -40.000000) translate(0.000000, 29.000000)">
                        <path d="M5.5737906,17.0411719 C12.4980485,17.0411719 12.4980485,11.3607812 5.5737906,0 C-1.35046727,11.3607812 -1.35046727,17.0411719 5.5737906,17.0411719 Z" id="Oval-8"></path>
                        <path d="M5.5,7.61414063 L5.5,21.2108203" id="Path-7"></path>
                        <polyline id="Path-8" points="2.75 10.8773438 5.5 13.7779687 8.25 10.8773438"></polyline>
                    </g>
                </g>
                <g id="Group-2-Copy" transform="translate(30.500000, 30.500000) rotate(-300.000000) translate(-30.500000, -30.500000) translate(25.000000, 5.000000)">
                    <g id="Group" transform="translate(0.513333, 0.000000)">
                        <path d="M4.87676427,17.263829 C11.339405,17.263829 11.339405,11.5260607 4.87676427,0.0505241089 C-1.58587642,11.5260607 -1.58587642,17.263829 4.87676427,17.263829 Z" id="Oval-8"></path>
                        <path d="M4.80789304,7.74157525 L4.80789304,21.4755951" id="Path-7"></path>
                        <polyline id="Path-8" points="2.24122637 11.03774 4.80789304 13.9676643 7.37455971 11.03774"></polyline>
                    </g>
                    <g id="Group-Copy" transform="translate(5.266667, 40.000000) rotate(-180.000000) translate(-5.266667, -40.000000) translate(0.266667, 29.000000)">
                        <path d="M5.06465731,17.590422 C11.527298,17.590422 11.527298,11.8526537 5.06465731,0.377117083 C-1.39798337,11.8526537 -1.39798337,17.590422 5.06465731,17.590422 Z" id="Oval-8"></path>
                        <path d="M4.99578608,8.06816822 L4.99578608,21.8021881" id="Path-7"></path>
                        <polyline id="Path-8" points="2.42911941 11.364333 4.99578608 14.2942572 7.56245275 11.364333"></polyline>
                    </g>
                </g>
                <g id="Group-2-Copy-2" transform="translate(31.500000, 30.000000) scale(-1, 1) rotate(-300.000000) translate(-31.500000, -30.000000) translate(26.000000, 4.000000)">
                    <g id="Group" transform="translate(-0.000000, -0.000000)">
                        <path d="M5.5737906,17.5801771 C12.4980485,17.5801771 12.4980485,11.8457506 5.5737906,0.376897445 C-1.35046727,11.8457506 -1.35046727,17.5801771 5.5737906,17.5801771 Z" id="Oval-8"></path>
                        <path d="M5.5,8.06346923 L5.5,21.7894903" id="Path-7"></path>
                        <polyline id="Path-8" points="2.75 11.3577143 5.5 14.2859321 8.25 11.3577143"></polyline>
                    </g>
                    <g id="Group-Copy" transform="translate(5.500000, 41.000000) rotate(-180.000000) translate(-5.500000, -41.000000) translate(0.000000, 30.000000)">
                        <path d="M5.42641854,17.5801771 C12.3506764,17.5801771 12.3506764,11.8457506 5.42641854,0.376897445 C-1.49783933,11.8457506 -1.49783933,17.5801771 5.42641854,17.5801771 Z" id="Oval-8"></path>
                        <path d="M5.35262794,8.06346923 L5.35262794,21.7894903" id="Path-7"></path>
                        <polyline id="Path-8" points="2.60262794 11.3577143 5.35262794 14.2859321 8.10262794 11.3577143"></polyline>
                    </g>
                </g>
                <path d="M43,16 C45,14.3583774 46,12.5250441 46,10.5 C46,8.47495592 45,6.64162258 43,5 C41,6.64162258 40,8.47495592 40,10.5 C40,12.5250441 41,14.3583774 43,16 Z" id="Oval-9" transform="translate(43.000000, 10.500000) rotate(40.000000) translate(-43.000000, -10.500000) "></path>
                <path d="M19,55 C21,53.3583774 22,51.5250441 22,49.5 C22,47.4749559 21,45.6416226 19,44 C17,45.6416226 16,47.4749559 16,49.5 C16,51.5250441 17,53.3583774 19,55 Z" id="Oval-9-Copy" transform="translate(19.000000, 49.500000) rotate(40.000000) translate(-19.000000, -49.500000) "></path>
                <g id="Group-3" transform="translate(13.000000, 4.000000)">
                    <path d="M30.4810918,50.1286013 C32.5953775,48.4621057 33.6525203,46.6009946 33.6525203,44.545268 C33.6525203,42.4895414 32.5953775,40.6284303 30.4810918,38.9619346 C28.3668061,40.6284303 27.3096632,42.4895414 27.3096632,44.545268 C27.3096632,46.6009946 28.3668061,48.4621057 30.4810918,50.1286013 Z" id="Oval-9-Copy-2" transform="translate(30.481092, 44.545268) rotate(-40.000000) translate(-30.481092, -44.545268) "></path>
                    <path d="M6.16680605,12.5679953 C8.28109176,10.9014996 9.33823462,9.04038849 9.33823462,6.98466192 C9.33823462,4.92893535 8.28109176,3.06782424 6.16680605,1.40132859 C4.05252034,3.06782424 2.99537748,4.92893535 2.99537748,6.98466192 C2.99537748,9.04038849 4.05252034,10.9014996 6.16680605,12.5679953 Z" id="Oval-9-Copy-3" transform="translate(6.166806, 6.984662) rotate(-40.000000) translate(-6.166806, -6.984662) "></path>
                </g>
                <g id="Group-3-Copy" transform="translate(31.500000, 29.500000) rotate(-58.000000) translate(-31.500000, -29.500000) translate(13.000000, 4.000000)">
                    <path d="M31.0974996,50.1714172 C33.2117853,48.4969622 34.2689281,46.6269622 34.2689281,44.5614172 C34.2689281,42.4958723 33.2117853,40.6258723 31.0974996,38.9514172 C28.9832139,40.6258723 27.926071,42.4958723 27.926071,44.5614172 C27.926071,46.6269622 28.9832139,48.4969622 31.0974996,50.1714172 Z" id="Oval-9-Copy-2" transform="translate(31.097500, 44.561417) rotate(-32.000000) translate(-31.097500, -44.561417) "></path>
                    <path d="M6.28112498,12.3765605 C8.39541069,10.7021055 9.45255355,8.83210549 9.45255355,6.76656053 C9.45255355,4.70101556 8.39541069,2.83101556 6.28112498,1.15656053 C4.16683926,2.83101556 3.1096964,4.70101556 3.1096964,6.76656053 C3.1096964,8.83210549 4.16683926,10.7021055 6.28112498,12.3765605 Z" id="Oval-9-Copy-3" transform="translate(6.281125, 6.766561) rotate(-32.000000) translate(-6.281125, -6.766561) "></path>
                </g>
            </g>
        </g>
    </g>
</svg>